<?xml version="1.0" encoding="iso-8859-1"?>
<!-- Uploaded to: SVG Repo, www.svgrepo.com, Generator: SVG Repo Mixer Tools -->
<!DOCTYPE svg PUBLIC "-//W3C//DTD SVG 1.1//EN" "http://www.w3.org/Graphics/SVG/1.1/DTD/svg11.dtd">
<svg fill="#476167" version="1.1" id="Capa_1" xmlns="http://www.w3.org/2000/svg" xmlns:xlink="http://www.w3.org/1999/xlink" 
	 width="800px" height="800px" viewBox="0 0 188.415 188.416"
	 xml:space="preserve">
<g>
	<path d="M91.51,9.603c0.009-0.914-0.042-1.839-0.062-2.744c0.022-1.464-0.706-2.774-1.796-3.636
		c-0.79-0.638-1.777-1.038-2.878-1.038c-1.099,0-2.084,0.398-2.873,1.034c-1.093,0.862-1.823,2.174-1.802,3.641
		c-0.025,1.159-0.12,2.35-0.04,3.507C39.406,15.564,0.169,44.015,0,94.032c-0.01,2.977,2.403,4.084,4.555,3.594
		c0.796,0.678,2.101,0.888,3.036,0.098c6.035-5.098,12.69-7.593,20.611-7.385c8.313,0.219,13.45,6.253,20.637,8.991
		c1.659,0.631,2.923-0.256,3.538-1.547c10.841-10.112,25.027-15.532,38.101-10.287c-0.47,0.561-0.776,1.274-0.714,2.174
		c0.825,12.125-1.772,23.855-2.172,35.886c-0.064,1.915,1.117,4.076,2.844,4.959c2.133,1.09,3.658,1.018,5.797,0
		c1.839-0.876,2.761-3.049,2.844-4.959c0.494-11.37,0.37-23.003-1.816-34.22c0.593,0.435,1.189,0.848,1.774,1.336
		c0.927,0.775,1.938,1.078,2.904,1.067c1.189,1.321,3.531,1.606,4.909-0.353c4.796-6.82,11.528-10.599,19.884-8.799
		c7.796,1.679,10.027,8.416,14.438,13.928c0.566,0.708,1.24,0.993,1.922,1.027c0.819,1.693,3.098,2.68,4.642,0.927
		c8.574-9.734,18.421-14.169,31.164-10.809c3.244,2.648,9.937,0.72,9.496-4.354C183.782,32.272,137.197,7.722,91.51,9.603z
		 M28.203,82.503c-7.627-0.398-14.618,2.768-19.902,7.883c5.421-34.93,29.781-58.95,62.072-67.14
		C54.706,40.62,42.959,62.652,42.781,85.88C38.102,83.751,32.704,82.737,28.203,82.503z M50.214,91.151
		c-0.692-0.792-1.477-1.51-2.315-2.179C49.23,74.4,53.305,61.797,61.132,48.934c5.994-9.851,14.336-17.975,20.941-27.317
		c6.692,19.318,11.81,38.21,13.394,58.483C80.378,73.168,61.967,78.856,50.214,91.151z M127.438,76.007
		c-9.423-1.98-17.82,2.77-23.156,9.992c-1.346-1.255-2.763-2.317-4.208-3.294c2.249-21.472-3.479-42.203-10.668-62.4
		c0.487-0.029,0.967-0.074,1.456-0.096c0.064-0.003,0.126,0.001,0.19-0.001c10.829,8.969,22.49,15.904,32.175,26.393
		c9.942,10.768,15.627,23.7,18.792,37.554C138.089,79.988,132.381,77.045,127.438,76.007z M147.521,90.699
		c0.699-26.958-16.14-55.35-39.646-69.75c33.044,4.24,59.265,25.367,67.812,58.539C164.816,78.096,154.619,82.463,147.521,90.699z"
		/>
	<path d="M153.67,171.104c-0.581-0.582-1.315-0.919-2.089-1.115c-0.314-0.421-0.631-0.84-0.929-1.27
		c-0.082-0.118-0.198-0.183-0.29-0.286c1.541-0.684,3.049-1.419,4.494-2.249c4.43-2.546,2.649-10.038-2.656-9.806
		c-10.658,0.467-20.926,3.254-31.663,3.601c-11.642,0.377-23.147-1.952-34.341-4.887c-24.584-6.444-46.25-19.614-69.248-29.833
		c-5.066-2.251-8.62,4.007-4.287,7.334c5.782,4.439,11.867,8.537,18.147,12.352c-1.773,1.898-3.214,4.369-4.593,6.26
		c-0.473,0.647-0.931,1.308-1.401,1.957c-3.974,4.519-7.434,9.688-10.15,14.57c-3.302,5.936,5.27,10.788,9.004,5.264
		c3.331-4.929,6.8-9.765,10.307-14.568c1.691-2.316,4.582-5.161,6.062-8.192c13.591,7.362,27.974,13.347,42.594,17.788
		c18.183,5.523,42.585,8.676,61.963,2.561c0.032,0.217,0.02,0.416,0.103,0.647c0.24,0.671,0.505,1.334,0.775,1.996
		c-0.091,0.412-0.148,0.842-0.101,1.315c0.28,2.764,1.227,5.396,1.926,8.078c1.438,5.51,10.217,4.436,9.987-1.352
		c-0.057-1.452-0.292-2.883-0.839-4.148C155.909,174.899,155.197,172.635,153.67,171.104z"/>
	<g>
		<path d="M48.048,120.13C48.306,120.281,48.297,120.233,48.048,120.13L48.048,120.13z"/>
		<path d="M53.036,112.478c-3.393-6.592-14.254-6.016-19.656-2.798c-0.979,0.583-1.17,1.769-0.785,2.68
			c-2.112,1.962-3.795,4.22-3.984,7.332c-0.3,4.931,5.048,8.326,8.692,10.419c2.62,1.504,5.052,2.99,8.15,2.137
			c2.502-0.69,4.385-2.699,5.85-4.729C54.316,123.339,55.444,117.156,53.036,112.478z"/>
	</g>
	<path d="M147.838,133.794c-12.58,1.662-25.12,3.392-37.821,3.707c-16.997,0.422-31.971-5.469-47.136-12.473
		c-4.292-1.982-9.806,3.719-5.47,7.09c27.686,21.523,59.285,18.014,92.032,13.534C156.158,144.733,154.567,132.904,147.838,133.794z
		"/>
</g>
</svg>